<svg xmlns="http://www.w3.org/2000/svg" xmlns:xlink="http://www.w3.org/1999/xlink" height="99" width="99.024" xmlns:v="https://vecta.io/nano"><defs><path id="A" opacity="1" fill-rule="evenodd" d="M99.024 50.75c0 22.415-14.17 41.434-33.83 48.155-2.513.5-3.305-1.087-3.305-2.436V82.543c0-4.737-1.622-7.824-3.396-9.397C69.52 71.89 81.1 67.597 81.1 48.104c0-5.54-1.92-10.07-5.096-13.623.512-1.277 2.207-6.44-.487-13.432 0 0-4.15-1.362-13.603 5.202-3.957-1.125-8.194-1.687-12.403-1.71-4.21.02-8.442.584-12.4 1.71-9.46-6.564-13.62-5.202-13.62-5.202-2.7 6.987-.994 12.15-.483 13.432-3.165 3.553-5.1 8.078-5.1 13.623 0 19.442 11.56 23.794 22.557 25.084-1.42 1.265-2.703 3.506-3.144 6.784-2.826 1.298-9.993 3.54-14.408-4.217 0 0-2.616-4.876-7.588-5.232 0 0-4.836-.068-.342 3.083 0 0 3.247 1.56 5.5 7.427 0 0 2.868 9.06 16.64 5.99v9.448c0 1.336-.8 2.9-3.272 2.44C14.185 92.198 0 73.175 0 50.75 0 22.724 22.173 0 49.512 0s49.512 22.724 49.512 50.75z"/></defs><use xlink:href="#A"/></svg>