<?xml version="1.0" encoding="utf-8"?>
<svg version="1.1" xmlns="http://www.w3.org/2000/svg" xmlns:xlink="http://www.w3.org/1999/xlink" height="112.11825939721439" width="195.14759876876133">
  <defs>
    <path id="path-1" opacity="1" fill-rule="evenodd" d="M9.999999999999318,58.171158302850245 C9.999999999999318,58.171158302850245 19.129723016015266,102.11825939721497 32.28546495457047,102.11825939721497 C38.85588695951612,102.11825939721497 46.54838064712977,78.96274355983593 54.23831102922265,58.171158302850245 C61.94567773948083,37.332429718733565 69.65089333699126,18.857524942039394 76.59634795447009,18.85752494203939 C90.47154453029002,18.857524942039383 98.47662205844598,58.171158302850245 98.47662205844598,58.171158302850245 "/>
    <path id="path-2" opacity="1" fill-rule="evenodd" d="M96.67097671031445,49.31363336081102 C96.67097671031445,49.31363336081102 105.80069972633042,93.26073445517594 118.95644166488565,93.26073445517594 C125.52686366983131,93.26073445517594 133.21935735744498,70.1052186177968 140.9092877395379,49.31363336081102 C148.61665444979607,28.474904776694252 156.32187004730653,10.000000000000004 163.26732466478535,10 C177.14252124060533,9.999999999999993 185.14759876876133,49.31363336081102 185.14759876876133,49.31363336081102 "/>
  </defs>
  <g opacity="1">
    <g transform="translate(54.23831102922265, 60.48789216962718) rotate(180.00006436155007) translate(-54.23831102922265, -60.48789216962718)" opacity="1">
      <use xlink:href="#path-1" fill-opacity="0" stroke="rgb(68,242,92)" stroke-opacity="1" stroke-width="20" stroke-linecap="round" stroke-linejoin="round"/>
    </g>
    <g transform="translate(140.9092877395379, 51.63036722758797) rotate(180.00006436155007) translate(-140.9092877395379, -51.63036722758797)" opacity="1">
      <use xlink:href="#path-2" fill-opacity="0" stroke="rgb(68,242,92)" stroke-opacity="1" stroke-width="20" stroke-linecap="round" stroke-linejoin="round"/>
    </g>
  </g>
</svg>