<svg xmlns="http://www.w3.org/2000/svg" xmlns:xlink="http://www.w3.org/1999/xlink" height="112.118" width="195.148" xmlns:v="https://vecta.io/nano"><defs><path id="A" opacity="1" fill-rule="evenodd" d="M10 58.17s9.13 43.947 22.285 43.947c6.57 0 14.263-23.156 21.953-43.947 7.707-20.84 15.413-39.314 22.358-39.314 13.875 0 21.88 39.314 21.88 39.314"/><path id="B" opacity="1" fill-rule="evenodd" d="M96.67 49.314s9.13 43.947 22.285 43.947c6.57 0 14.263-23.156 21.953-43.947C148.617 28.475 156.322 10 163.267 10c13.875 0 21.88 39.314 21.88 39.314"/></defs><g stroke="#44f25c" stroke-width="20" stroke-linecap="round" stroke-linejoin="round"><use xlink:href="#A" fill-opacity="0" transform="matrix(-1 -.000001 .000001 -1 108.476554 120.975845)"/><use xlink:href="#B" fill-opacity="0" transform="matrix(-1 -.000001 .000001 -1 281.818517 103.260893)"/></g></svg>