<?xml version="1.0" encoding="UTF-8"?>
<svg width="100px" height="99px" viewBox="0 0 100 99" version="1.1" xmlns="http://www.w3.org/2000/svg" xmlns:xlink="http://www.w3.org/1999/xlink">
    <!-- Generator: Sketch 52.3 (67297) - http://www.bohemiancoding.com/sketch -->
    <title>Linkedin Button</title>
    <desc>Created with Sketch.</desc>
    <g id="Page-1" stroke="none" stroke-width="1" fill="none" fill-rule="evenodd">
        <g id="Linkedin-Button" fill="#000000">
            <path d="M99.024,49.5 C99.024,22.18 76.84,0 49.512,0 C22.184,0 0,22.18 0,49.5 C0,76.82 22.186,99 49.512,99 C76.838,99 99.024,76.82 99.024,49.5 L41.084,31.14 C41.084,28.65 39.084,26.64 36.609,26.64 C34.134,26.64 32.134,28.66 32.134,31.14 C32.134,33.62 34.139,35.64 36.609,35.64 C39.079,35.64 41.084,33.623 41.084,31.14 L99.024,49.5 L69.152,63.675 L69.152,50.015 C69.152,36.659 56.428,37.147 52.88,43.719 L52.88,39.274 L44.744,39.274 L44.744,63.674 L52.88,63.674 L52.88,52.04 C52.88,45.037 61.024,44.39 61.024,52.04 L61.024,63.675 L40.68,63.675 L40.68,39.275 L32.544,39.275 L32.544,63.675 L69.152,63.675 L99.024,49.5 Z" id="A"></path>
        </g>
    </g>
</svg>