<svg xmlns="http://www.w3.org/2000/svg" xmlns:xlink="http://www.w3.org/1999/xlink" height="64.753" width="350.63" xmlns:v="https://vecta.io/nano"><defs><path id="A" opacity="1" fill-rule="evenodd" d="M10.315 31.292s11.35 20.585 27.707 20.585c8.17 0 17.733-10.846 27.293-20.585 9.582-9.76 19.162-18.415 27.797-18.415 17.25 0 27.203 18.415 27.203 18.415"/><path id="B" opacity="1" fill-rule="evenodd" d="M120.315 31.292s11.35 20.585 27.707 20.585c8.17 0 17.733-10.846 27.293-20.585 9.582-9.76 19.162-18.415 27.797-18.415 17.25 0 27.203 18.415 27.203 18.415"/><path id="C" opacity="1" fill-rule="evenodd" d="M230.315 31.292s11.35 20.585 27.707 20.585c8.17 0 17.733-10.846 27.293-20.585 9.582-9.76 19.162-18.415 27.797-18.415 17.25 0 27.203 18.415 27.203 18.415"/></defs><g transform="matrix(-.999848 .017451 -.017451 -.999848 351.168721 61.688968)" stroke="#ff5f58" stroke-width="20" stroke-linecap="round" stroke-linejoin="round"><use xlink:href="#A" fill-opacity="0" transform="matrix(-1 -.000001 .000001 -1 130.630354 64.753448)"/><use xlink:href="#B" fill-opacity="0" transform="matrix(-1 -.000001 .000001 -1 350.630367 64.753572)"/><use xlink:href="#C" fill-opacity="0" transform="matrix(-1 -.000001 .000001 -1 570.630381 64.753695)"/></g></svg>