<svg xmlns="http://www.w3.org/2000/svg" xmlns:xlink="http://www.w3.org/1999/xlink" height="99" width="99.024" xmlns:v="https://vecta.io/nano"><defs><path id="A" opacity="1" fill-rule="evenodd" d="M99.024 49.5C99.024 22.18 76.84 0 49.512 0S0 22.18 0 49.5 22.186 99 49.512 99s49.512-22.18 49.512-49.5L38.3 73.97c23.078 0 36.114-19.482 35.322-36.957l6.2-6.44c-2.224.99-4.62 1.657-7.135 1.96 2.566-1.54 4.534-3.97 5.464-6.873a24.79 24.79 0 0 1-7.892 3.015 12.42 12.42 0 0 0-9.069-3.923c-8.026 0-13.923 7.487-12.1 15.256-10.328-.52-19.487-5.463-25.613-12.98-3.254 5.584-1.687 12.9 3.846 16.588a12.4 12.4 0 0 1-5.629-1.553c-.134 5.757 3.993 11.138 9.968 12.34-1.744.476-3.665.584-5.616.212 1.588 4.935 6.178 8.53 11.613 8.63-5.222 4.088-11.803 5.922-18.397 5.143 5.5 3.525 12.028 5.584 19.046 5.584L99.024 49.5z"/></defs><use xlink:href="#A"/></svg>